name C:\Users\u0101727\Documents\MyRepositories\paper-ad\predictivesimulations_2d/Results/PredSim_2D/IK_c24.mot
datacolumns 11
datarows 21
range 0.00000000 0.19187125
endheader
time	pelvis_tilt	pelvis_tx	pelvis_ty	hip_flexion_l	hip_flexion_r	knee_angle_l	knee_angle_r	ankle_angle_l	ankle_angle_r	lumbar_extension	
          0.00000000	        -15.10486329	          0.00000000	          0.88368149	          0.92662437	         38.04148299	        -16.23012895	        -10.56992067	          5.77648675	         13.83795379	          9.60053872	
          0.00959356	        -15.06682764	          0.01477773	          0.88289600	          0.83294206	         37.55677238	        -17.72379588	         -9.96444325	          4.57584036	         13.38970942	          9.69742491	
          0.01918713	        -15.01774145	          0.02981888	          0.88205968	          0.81799435	         36.97685214	        -19.38493771	         -9.64495909	          3.27133631	         12.88939340	          9.80734789	
          0.02878069	        -14.96016132	          0.04510641	          0.88119594	          0.88902166	         36.23364949	        -21.21043671	         -9.73200238	          1.84295768	         12.33493762	          9.93428126	
          0.03837425	        -14.90229701	          0.06045447	          0.88043163	          1.05065916	         35.37033447	        -23.18171322	        -10.04591375	          0.37608400	         11.76566919	         10.06879715	
          0.04796781	        -14.85512059	          0.07552241	          0.87999608	          1.32975996	         34.51210196	        -25.20638305	        -10.32578976	         -0.90768850	         11.21552202	         10.18765213	
          0.05756138	        -14.82719580	          0.09006315	          0.88015083	          1.75458636	         33.69619457	        -27.14426975	        -10.58375241	         -1.91034052	         10.68436994	         10.27693178	
          0.06715494	        -14.82086895	          0.10401367	          0.88105158	          2.32104952	         32.92507575	        -28.93270399	        -10.81467655	         -2.66126020	         10.18686479	         10.33549505	
          0.07674850	        -14.83145398	          0.11745718	          0.88265767	          3.01238438	         32.18022307	        -30.59237660	        -11.00656931	         -3.16988395	          9.73929996	         10.36948393	
          0.08634206	        -14.85235933	          0.13051787	          0.88475948	          3.80805493	         31.44052479	        -32.15240319	        -11.15051225	         -3.44895136	          9.35315696	         10.38592505	
          0.09593563	        -14.87821966	          0.14330320	          0.88712451	          4.69249909	         30.68918201	        -33.63037669	        -11.23970258	         -3.51402830	          9.03470991	         10.39013428	
          0.10552919	        -14.90559568	          0.15588744	          0.88957010	          5.65368215	         29.91674903	        -35.03476658	        -11.27222917	         -3.38013104	          8.78558607	         10.38530899	
          0.11512275	        -14.93259375	          0.16831757	          0.89197264	          6.68259284	         29.11869699	        -36.36688272	        -11.24852412	         -3.06356169	          8.60475194	         10.37320838	
          0.12471631	        -14.95825320	          0.18062365	          0.89425292	          7.77182748	         28.29347598	        -37.62361628	        -11.17058304	         -2.58107640	          8.48957043	         10.35484323	
          0.13430988	        -14.98208555	          0.19282599	          0.89636052	          8.91520530	         27.44145648	        -38.80008838	        -11.04188373	         -1.94954481	          8.43630850	         10.33082911	
          0.14390344	        -15.00382441	          0.20493966	          0.89826302	         10.10718175	         26.56428874	        -39.89019941	        -10.86726644	         -1.18591184	          8.44041931	         10.30161636	
          0.15349700	        -15.02329850	          0.21697706	          0.89993943	         11.34239680	         25.66456642	        -40.88718395	        -10.65276568	         -0.30735039	          8.49675595	         10.26761145	
          0.16309057	        -15.04038410	          0.22894911	          0.90137710	         12.61543486	         24.74559558	        -41.78385944	        -10.40539489	          0.66874419	          8.59974632	         10.22922901	
          0.17268413	        -15.05499539	          0.24086531	          0.90257116	         13.92091063	         23.81133279	        -42.57261790	        -10.13314204	          1.72480556	          8.74357870	         10.18686490	
          0.18227769	        -15.06711531	          0.25273326	          0.90352484	         15.25382944	         22.86622811	        -43.24531573	         -9.84385392	          2.84316790	          8.92238583	         10.14083493	
          0.19187125	        -15.07686566	          0.26456025	          0.90424873	         16.60823082	         21.91419246	        -43.79442014	         -9.54460443	          4.00602196	          9.12970413	         10.09161154	
